<svg width="23" height="22" viewBox="0 0 23 22" fill="none" xmlns="http://www.w3.org/2000/svg">
<g id="Frame 120">
<g id="Group 1059">
<path id="Vector 32" d="M4.3723 0.451205L1.50446 3.58092C1.1958 3.91777 1.44609 4.45343 1.90782 4.44414L21.1568 4.05658C21.6189 4.04727 21.8464 3.50113 21.523 3.17723L18.4305 0.079447C18.3795 0.0283801 18.3092 0.000264195 18.2364 0.00176622L4.75373 0.279711C4.60788 0.282718 4.4698 0.344797 4.3723 0.451205Z" fill="#C6500E"/>
<path id="Vector 33" d="M9.25407 19.1975L1.02783 4.50311L4.69174 0.799316L12.9601 15.8158L9.25407 19.1975Z" fill="white"/>
<path id="Vector 33 (Stroke)" fill-rule="evenodd" clip-rule="evenodd" d="M0.56513 4.75202C0.453654 4.55289 0.487648 4.30575 0.648942 4.1427L4.31285 0.438912C4.4299 0.320583 4.59745 0.264026 4.76398 0.286631C4.93051 0.309236 5.07609 0.408297 5.15596 0.553359L13.4243 15.5698C13.5385 15.7772 13.4954 16.034 13.3195 16.1945L9.61344 19.5762C9.49432 19.6849 9.33072 19.7336 9.17006 19.7083C9.00941 19.6829 8.86968 19.5863 8.79137 19.4464L0.56513 4.75202ZM9.25396 19.1974L12.96 15.8157L4.69162 0.799211L1.02772 4.503L9.25396 19.1974Z" fill="#C6500E"/>
<path id="Vector 35 (Stroke)" fill-rule="evenodd" clip-rule="evenodd" d="M4.29661 7.50639C4.42391 7.43684 4.5846 7.48166 4.65552 7.60648L7.65965 12.8938C7.73057 13.0186 7.68487 13.1762 7.55758 13.2457C7.43028 13.3153 7.26959 13.2705 7.19866 13.1456L4.19454 7.85834C4.12362 7.73351 4.16932 7.57594 4.29661 7.50639Z" fill="#C6500E"/>
<path id="Vector 34" d="M14.8128 17.9093L21.9722 4.03349L18.2661 0.517578L10.6295 15.2254L14.8128 17.9093Z" fill="white"/>
<path id="Vector 34 (Stroke)" fill-rule="evenodd" clip-rule="evenodd" d="M22.4431 4.267C22.5476 4.06464 22.5054 3.81918 22.3392 3.66149L18.6332 0.14557C18.5129 0.0314234 18.3444 -0.0199682 18.1793 0.00707603C18.0142 0.0341202 17.872 0.136392 17.796 0.282685L10.1593 14.9905C10.0371 15.2259 10.1153 15.5137 10.3407 15.6583L14.524 18.3422C14.6496 18.4228 14.8043 18.4471 14.9494 18.4091C15.0944 18.371 15.216 18.2742 15.2838 18.1428L22.4431 4.267ZM14.8129 17.9092L10.6296 15.2253L18.2663 0.517473L21.9723 4.03339L14.8129 17.9092Z" fill="#C6500E"/>
<path id="Vector 36 (Stroke)" fill-rule="evenodd" clip-rule="evenodd" d="M17.7362 3.98863C17.8672 4.05126 17.9216 4.20614 17.8577 4.33459L15.6959 8.68251C15.632 8.81095 15.4741 8.86431 15.3431 8.80169C15.2121 8.73906 15.1577 8.58417 15.2216 8.45573L17.3834 4.1078C17.4473 3.97936 17.6052 3.92601 17.7362 3.98863Z" fill="#C6500E"/>
<path id="Ellipse 51" d="M17.1884 16.1142C17.1884 19.0792 14.7372 21.4828 11.7136 21.4828C8.68992 21.4828 6.23877 19.0792 6.23877 16.1142C6.23877 13.1492 8.68992 10.7456 11.7136 10.7456C14.7372 10.7456 17.1884 13.1492 17.1884 16.1142Z" fill="white"/>
<path id="Ellipse 51 (Stroke)" fill-rule="evenodd" clip-rule="evenodd" d="M17.716 16.1138C17.716 19.3646 15.0285 21.9999 11.7134 21.9999C8.39835 21.9999 5.71094 19.3646 5.71094 16.1138C5.71094 12.8631 8.39835 10.2278 11.7134 10.2278C15.0285 10.2278 17.716 12.8631 17.716 16.1138ZM11.7134 21.4824C14.7371 21.4824 17.1882 19.0788 17.1882 16.1138C17.1882 13.1489 14.7371 10.7453 11.7134 10.7453C8.68979 10.7453 6.23864 13.1489 6.23864 16.1138C6.23864 19.0788 8.68979 21.4824 11.7134 21.4824Z" fill="#C6500E"/>
<path id="Ellipse 52 (Stroke)" fill-rule="evenodd" clip-rule="evenodd" d="M15.2127 16.1139C15.2127 18.009 13.6459 19.5454 11.7133 19.5454C9.7806 19.5454 8.21387 18.009 8.21387 16.1139C8.21387 14.2187 9.7806 12.6824 11.7133 12.6824C13.6459 12.6824 15.2127 14.2187 15.2127 16.1139ZM11.7133 19.0279C13.3545 19.0279 14.6849 17.7233 14.6849 16.1139C14.6849 14.5045 13.3545 13.1998 11.7133 13.1998C10.072 13.1998 8.74157 14.5045 8.74157 16.1139C8.74157 17.7233 10.072 19.0279 11.7133 19.0279Z" fill="#C6500E"/>
</g>
</g>
</svg>
